<?xml version="1.0" encoding="UTF-8" standalone="no"?>
<!DOCTYPE svg PUBLIC "-//W3C//DTD SVG 1.1//EN" "http://www.w3.org/Graphics/SVG/1.1/DTD/svg11.dtd">
<svg width="100%" height="100%" viewBox="0 0 3930 900" version="1.1" xmlns="http://www.w3.org/2000/svg" xmlns:xlink="http://www.w3.org/1999/xlink" xml:space="preserve" style="fill-rule:evenodd;clip-rule:evenodd;stroke-linejoin:round;stroke-miterlimit:1.41421;">
    <g transform="matrix(4.16667,0,0,4.16667,0,0)">
        <path d="M252.309,59.602L277.86,59.602L292.15,117.988L308.707,59.602L327.367,59.602L343.924,117.988L358.352,59.602L383.788,59.602L357.959,152.303L332.963,152.303L318.141,99.998L303.319,152.303L278.299,152.303L252.309,59.602Z" style="fill:rgb(129,63,214);fill-rule:nonzero;"/>
        <path d="M424,119.19C424,110.981 418.311,105.409 410.634,105.409C403.096,105.409 397.384,110.981 397.384,119.19C397.384,127.399 403.073,132.972 410.634,132.972C418.311,132.949 424,127.399 424,119.19ZM375.279,119.19C375.279,99.466 391.026,84.228 410.634,84.228C430.359,84.228 445.99,99.466 445.99,119.19C445.99,138.915 430.359,154.153 410.634,154.153C391.164,154.129 375.279,138.915 375.279,119.19Z" style="fill:rgb(129,63,214);fill-rule:nonzero;"/>
        <path d="M494.295,84.76L494.295,109.131C485.553,107.814 474.431,111.79 474.431,124.878L474.431,152.28L452.441,152.28L452.441,86.078L474.431,86.078L474.431,98.403C477.067,89.385 485.415,84.76 494.295,84.76Z" style="fill:rgb(129,63,214);fill-rule:nonzero;"/>
        <rect x="500.492" y="55.624" width="21.99" height="96.656" style="fill:rgb(129,63,214);fill-rule:nonzero;"/>
        <path d="M577.307,119.19C577.307,110.588 571.619,104.761 563.41,104.761C555.201,104.761 549.512,110.588 549.512,119.19C549.512,127.792 555.201,133.62 563.41,133.62C571.619,133.62 577.307,127.792 577.307,119.19ZM599.298,59.602L599.298,152.303L577.307,152.303L577.307,146.221C573.076,151.262 566.971,154.176 558.508,154.176C540.772,154.176 527.383,139.077 527.383,119.213C527.383,99.351 540.749,84.251 558.508,84.251C566.994,84.251 573.076,87.165 577.307,92.205L577.307,59.602L599.298,59.602Z" style="fill:rgb(129,63,214);fill-rule:nonzero;"/>
        <path d="M637.844,102.241L650.955,102.241C656.782,102.379 660.875,98.125 660.875,91.905C660.875,85.824 656.758,81.454 650.955,81.454L637.844,81.454L637.844,102.241ZM646.307,122.358L637.821,122.358L637.821,152.28L614.142,152.28L614.142,59.602L651.21,59.602C670.008,59.602 684.576,72.967 684.576,91.651C684.576,103.027 678.356,112.715 668.829,118.011L687.906,152.303L662.47,152.303L646.307,122.358Z" style="fill:rgb(129,63,214);fill-rule:nonzero;"/>
        <path d="M732.765,112.022C730.777,105.131 725.62,102.749 720.325,102.749C713.966,102.749 709.203,105.917 707.352,112.022L732.765,112.022ZM722.452,135.331C727.216,135.331 731.332,133.735 734.5,130.707L750.385,141.828C743.772,150.175 733.69,154.153 721.921,154.153C699.006,154.153 684.853,138.915 684.853,119.329C684.853,99.466 699.422,84.228 720.071,84.228C739.933,84.228 754.223,99.189 754.223,119.051C754.223,121.827 753.969,124.486 753.299,127.26L707.607,127.26C710.266,133.62 716.093,135.331 722.452,135.331Z" style="fill:rgb(129,63,214);fill-rule:nonzero;"/>
        <path d="M862.649,111.768L862.649,152.28L840.543,152.28L840.543,114.288C840.543,108.6 837.883,105.016 832.335,105.016C826.114,105.016 823.201,109.525 823.201,116.138L823.201,152.28L801.211,152.28L801.211,114.288C801.211,108.6 798.435,105.016 792.863,105.016C786.781,105.016 783.729,109.525 783.729,116.138L783.729,152.28L761.739,152.28L761.739,86.078L783.729,86.078L783.729,92.298C787.313,87.535 793.14,84.228 801.603,84.228C809.419,84.228 814.968,87.281 818.552,92.714C822.669,87.674 828.611,84.228 837.745,84.228C852.983,84.228 862.649,94.541 862.649,111.768Z" style="fill:rgb(129,63,214);fill-rule:nonzero;"/>
        <path d="M870.118,86.078L892.108,86.078L892.108,152.28L870.118,152.28L870.118,86.078ZM869.262,72.528C865.262,62.053 875.783,52.063 886.142,56.388C889.172,57.66 891.669,60.157 892.871,63.209C897.056,73.661 886.374,84.136 875.922,79.534C872.892,78.193 870.441,75.626 869.262,72.528Z" style="fill:rgb(129,63,214);fill-rule:nonzero;"/>
        <path d="M928.713,107.12L928.713,126.312C928.713,132.533 933.615,132.925 942.494,132.394L942.494,152.256C915.486,155.563 906.745,147.215 906.745,126.821L906.745,107.097L899.091,107.097L899.091,86.032L906.745,86.032L906.745,74.169L928.735,67.556L928.735,86.101L942.517,86.101L942.517,107.166L928.713,107.166L928.713,107.12Z" style="fill:rgb(129,63,214);fill-rule:nonzero;"/>
        <path d="M115.617,0.784C114.775,0.784 113.93,0.896 113.104,1.126L42.814,20.633C40.412,21.3 38.374,22.893 37.146,25.062L1.219,88.55C-0.009,90.721 -0.324,93.291 0.342,95.694L19.849,165.983C20.516,168.385 22.109,170.423 24.278,171.651L87.766,207.579C89.191,208.385 90.788,208.797 92.397,208.797C93.239,208.797 94.084,208.685 94.91,208.456L165.2,188.948C167.602,188.282 169.641,186.688 170.868,184.519L206.796,121.031C208.024,118.86 208.34,116.29 207.673,113.887L188.165,43.598C187.498,41.196 185.905,39.158 183.736,37.93L120.248,2.003C118.823,1.197 117.226,0.784 115.617,0.784ZM115.617,7.834C116.023,7.834 116.423,7.94 116.776,8.139L180.263,44.066C180.81,44.375 181.203,44.879 181.371,45.483L200.878,115.772C201.046,116.377 200.968,117.012 200.659,117.558L164.732,181.046C164.423,181.592 163.92,181.986 163.315,182.154L93.025,201.661C92.82,201.718 92.609,201.747 92.397,201.747C91.991,201.747 91.591,201.641 91.239,201.442L27.751,165.515C27.205,165.206 26.811,164.703 26.644,164.098L7.136,93.809C6.968,93.204 7.046,92.569 7.355,92.023L43.282,28.535C43.592,27.989 44.095,27.595 44.699,27.428L114.989,7.92C115.194,7.863 115.405,7.834 115.617,7.834Z" style="fill:rgb(129,63,214);fill-rule:nonzero;"/>
        <path d="M94.228,139.623L92.334,138.93C90.857,138.331 89.679,137.129 89.171,135.606L79.311,106.696C78.918,105.564 78.918,104.317 79.311,103.185L80.535,99.584L90.649,69.911L91.249,69.935C93.397,70.097 95.244,71.528 95.937,73.56L105.774,102.308C106.166,103.439 106.166,104.64 105.774,105.772L104.388,109.835L94.228,139.623Z" style="fill:rgb(129,63,214);fill-opacity:0.6;fill-rule:nonzero;"/>
        <path d="M139.445,139.767C138.329,139.767 137.322,139.065 136.947,137.984L126.279,106.696C125.678,104.963 125.678,103.07 126.279,101.338L127.087,98.937L136.97,69.911C137.362,68.757 138.448,67.972 139.672,67.972L160.962,67.972C162.924,67.972 164.287,69.889 163.686,71.782L140.549,139.669C140.226,139.693 139.902,139.739 139.602,139.762C139.55,139.765 139.497,139.767 139.445,139.767Z" style="fill:rgb(129,63,214);fill-opacity:0.6;fill-rule:nonzero;"/>
        <path d="M91.503,141.609L70.213,141.609C68.989,141.609 67.904,140.824 67.511,139.669L44.351,71.759C43.727,69.912 45.09,67.972 47.052,67.972L68.342,67.972C69.567,67.972 70.652,68.757 71.044,69.912L94.205,137.823C94.851,139.669 93.466,141.609 91.503,141.609Z" style="fill:rgb(129,63,214);fill-rule:nonzero;"/>
        <path d="M137.801,141.609L116.511,141.609C115.287,141.609 114.202,140.824 113.81,139.669L90.649,71.759C90.025,69.912 91.387,67.972 93.35,67.972L114.664,67.972C115.888,67.972 116.973,68.757 117.365,69.912L140.526,137.823C141.15,139.669 139.764,141.609 137.801,141.609Z" style="fill:rgb(129,63,214);fill-rule:nonzero;"/>
    </g>
</svg>
