<svg xmlns="http://www.w3.org/2000/svg" xmlns:xlink="http://www.w3.org/1999/xlink" width="50" height="31" viewBox="0 0 50 31">
    <defs>
        <path id="c91wd9obsa" d="M0 0L11.117 0 11.117 14.13 0 14.13z"/>
    </defs>
    <g fill="none" fill-rule="evenodd">
        <rect width="49" height="30" x=".5" y=".5" fill="#FFF" stroke="#2F4662" stroke-opacity=".1" rx="4"/>
        <g transform="translate(5 8)">
            <mask id="giskava9qb" fill="#fff">
                <use xlink:href="#c91wd9obsa"/>
            </mask>
            <path fill="#000" d="M8.29 3.43c-1.13-.07-2.095.651-2.627.651-.532 0-1.364-.617-2.262-.617-1.164.034-2.228.686-2.827 1.783-1.197 2.16-.332 5.35.865 7.1.565.856 1.264 1.817 2.162 1.782.864-.034 1.197-.583 2.228-.583 1.03 0 1.33.583 2.261.55.932-.035 1.53-.858 2.096-1.75.665-.994.931-1.955.931-1.989-.033-.034-1.83-.72-1.83-2.846-.032-1.784 1.398-2.641 1.464-2.675C9.986 3.6 8.722 3.464 8.29 3.429m-.698-1.166C8.057 1.646 8.39.823 8.29 0c-.698.034-1.53.48-2.029 1.063-.432.515-.831 1.372-.731 2.16.798.104 1.563-.342 2.062-.96" mask="url(#giskava9qb)"/>
            <path fill="#000" d="M32.85 17.93V16.34c.136.035.475.035.61.035.882 0 1.357-.381 1.662-1.35 0-.035.17-.588.17-.588l-3.39-9.551h2.067l2.373 7.786h.034l2.373-7.786h2.034l-3.491 10.07C36.478 17.273 35.562 18 33.63 18c-.135-.035-.61-.035-.78-.07zm-3.627-7.093v-.762l-2.305.139c-1.153.069-1.797.588-1.797 1.419 0 .83.678 1.384 1.695 1.384 1.356 0 2.407-.934 2.407-2.18zm-6.068.865c0-1.661 1.254-2.7 3.492-2.838l2.576-.138v-.727c0-1.073-.712-1.696-1.865-1.696-1.118 0-1.796.554-1.966 1.385h-1.83c.101-1.73 1.559-3.011 3.864-3.011 2.272 0 3.73 1.211 3.73 3.15V14.4h-1.831v-1.557h-.034c-.543 1.073-1.73 1.73-2.95 1.73-1.898 0-3.186-1.176-3.186-2.872zm-7.56-3.495h2.271c1.729 0 2.712-.97 2.712-2.596 0-1.66-.983-2.595-2.712-2.595h-2.305v5.19h.034zm2.813-6.921c2.51 0 4.238 1.765 4.238 4.29 0 2.562-1.763 4.326-4.305 4.326h-2.746v4.464h-2V1.286h4.813z"/>
        </g>
    </g>
</svg>
