<svg xmlns="http://www.w3.org/2000/svg" width="51" height="31" viewBox="0 0 51 31">
    <g fill="none" fill-rule="evenodd">
        <rect width="50" height="30" x=".5" y=".5" fill="#FFF" stroke="#2F4662" stroke-opacity=".1" rx="4"/>
        <g fill-rule="nonzero">
            <path fill="#20659E" d="M16.534 13.013L13.457 13.013 15.382 1.079 18.458 1.079zM24.928.863c-3.038 0-5.178 1.625-5.191 3.948-.025 1.714 1.532 2.666 2.696 3.238 1.19.584 1.595.965 1.595 1.485-.012.8-.962 1.168-1.847 1.168-1.229 0-1.887-.19-2.887-.635l-.405-.19-.43 2.679c.72.33 2.05.622 3.43.635 3.229 0 5.33-1.6 5.355-4.076.013-1.358-.81-2.4-2.582-3.25-1.076-.546-1.735-.914-1.735-1.473.012-.508.557-1.028 1.772-1.028 1-.025 1.735.216 2.292.457l.278.127.418-2.577c-.606-.242-1.569-.508-2.76-.508zM31.777 8.785c.253-.685 1.228-3.339 1.228-3.339-.013.026.253-.698.405-1.142l.215 1.028s.582 2.857.709 3.453h-2.557zm3.797-7.706h-2.38c-.733 0-1.29.216-1.608.99l-4.57 10.944h3.229l.645-1.79h3.95c.089.419.368 1.79.368 1.79h2.848L35.574 1.079zM7.875 9.217l-.33-1.65c-.557-1.905-2.304-3.974-4.253-5.003L6.052 13h3.253l4.836-11.92h-3.253L7.875 9.216z" transform="translate(5.737 8.396)"/>
            <path fill="#FAA61A" d="M.127 1.08l-.051.24c3.861.99 6.419 3.378 7.47 6.247L6.468 2.082c-.177-.762-.721-.978-1.392-1.003H.127z" transform="translate(5.737 8.396)"/>
        </g>
    </g>
</svg>
